<svg xmlns="http://www.w3.org/2000/svg" viewBox="0 0 294.71 213.21"><defs><style>.cls-1{fill:#fff;}</style></defs><g id="Vertical_Stacked" data-name="Vertical Stacked"><rect class="cls-1" x="110.26" y="134.63" width="73.68" height="1.13"/><path class="cls-1" d="M182.51,88.77V57.13h1.42l12.56-20.65h-35L147.1,60.36,132.68,36.48h-35l12.55,20.65h1.43V88.77h-1.43L97.71,109.43h98.78L183.93,88.77Zm-34,18.51,9.94-16.36h2.37V79.46L147.1,102.25,133.34,79.46V90.92h2.36l10,16.36H101.52l10-16.36h2.36V55h-2.36l-10-16.36h30L147.1,64.51l15.63-25.89h29.94L182.73,55h-2.37V90.92h2.37l9.94,16.36Z"/><polygon class="cls-1" points="118.12 50.69 113.88 50.69 109.15 42.91 129.05 42.91 129.05 42.91 147.1 72.81 165.15 42.91 185.05 42.91 180.31 50.69 176.07 50.69 176.07 95.21 180.31 95.21 185.05 102.99 156.17 102.99 160.91 95.21 165.15 95.21 165.15 64.05 153.48 83.38 147.1 93.95 147.1 93.95 147.1 93.95 140.72 83.38 129.05 64.05 129.05 95.21 133.29 95.21 138.02 102.99 109.15 102.99 113.88 95.21 118.12 95.21 118.12 50.69"/><path class="cls-1" d="M97.56,161.47h2.49V174.2h6.44v2.3H97.56Z"/><path class="cls-1" d="M108.68,161.47h2.51v15h-2.51Z"/><path class="cls-1" d="M114.58,161.47h5.36a5.35,5.35,0,0,1,3.85,1.29,3.44,3.44,0,0,1,1,2.53v.06a3.56,3.56,0,0,1-2.21,3.37c1.65.56,2.85,1.59,2.85,3.59v.09c0,2.64-2.15,4.1-5.34,4.1h-5.52Zm7.75,4.23c0-1.27-1-2-2.56-2H117v4.16h2.62c1.63,0,2.71-.7,2.71-2.1ZM120.05,170h-3v4.29h3.16c1.72,0,2.81-.77,2.81-2.14v0C123,170.78,122,170,120.05,170Z"/><path class="cls-1" d="M128,161.47h5.44a5.56,5.56,0,0,1,4,1.41,4.62,4.62,0,0,1,1.25,3.33v.07a4.4,4.4,0,0,1-3.12,4.4l3.54,5.82h-2.89l-3.18-5.31h-2.56v5.31H128Zm5.18,7.49c1.93,0,3-1,3-2.62v0c0-1.7-1.09-2.6-3-2.6h-2.71V169Z"/><path class="cls-1" d="M146.28,161.38h2.4l5.52,15.12h-2.6L150.36,173h-5.84l-1.25,3.55h-2.51Zm3.28,9.36-2.12-6-2.15,6Z"/><path class="cls-1" d="M156.28,161.47h5.43a5.55,5.55,0,0,1,4,1.41,4.58,4.58,0,0,1,1.25,3.33v.07a4.4,4.4,0,0,1-3.11,4.4l3.54,5.82h-2.9l-3.18-5.31h-2.55v5.31h-2.49Zm5.17,7.49c1.94,0,3-1,3-2.62v0c0-1.7-1.1-2.6-3-2.6h-2.7V169Z"/><path class="cls-1" d="M169.81,161.47h2.51v15h-2.51Z"/><path class="cls-1" d="M175.7,161.47h9.47v2.25h-7v4.08h6.19v2.26h-6.19v4.16h7.07v2.28H175.7Z"/><path class="cls-1" d="M187,174.52l1.5-1.87a5.86,5.86,0,0,0,4,1.79c1.44,0,2.39-.82,2.39-1.92v0c0-1-.52-1.56-2.9-2.44-2.86-1.08-4.32-2.13-4.32-4.54v0c0-2.47,2-4.21,4.75-4.21a6.83,6.83,0,0,1,4.72,1.79L195.72,165a5.4,5.4,0,0,0-3.38-1.44c-1.35,0-2.19.75-2.19,1.74v0c0,1.05.56,1.61,3.12,2.6,2.79,1.07,4.08,2.23,4.08,4.42v0c0,2.64-2.06,4.34-4.88,4.34A7.76,7.76,0,0,1,187,174.52Z"/></g></svg>