<svg id="Horizontal_Stacked" data-name="Horizontal Stacked" xmlns="http://www.w3.org/2000/svg" viewBox="0 0 326 145.9"><defs><style>.cls-1{fill:#fff;}</style></defs><rect class="cls-1" x="160.45" y="36.17" width="1.13" height="73.03"/><path class="cls-1" d="M121.27,88.77V57.13h1.43l12.55-20.65h-35L85.86,60.36,71.45,36.48h-35L49,57.13h1.42V88.77H49L36.48,109.43h98.77L122.7,88.77Zm-34,18.51,10-16.36h2.36V79.46L85.86,102.25,72.1,79.46V90.92h2.37l9.94,16.36H40.29l9.94-16.36H52.6V55H50.23L40.29,38.62H70.24L85.86,64.51l15.63-25.89h30L121.49,55h-2.36V90.92h2.36l10,16.36Z"/><polygon class="cls-1" points="56.89 50.69 52.65 50.69 47.91 42.91 67.81 42.91 67.81 42.91 85.86 72.81 103.91 42.91 123.81 42.91 119.08 50.69 114.84 50.69 114.84 95.21 119.08 95.21 123.81 102.99 94.94 102.99 99.67 95.21 103.91 95.21 103.91 64.05 92.25 83.38 85.86 93.95 85.86 93.95 85.86 93.95 79.48 83.38 67.81 64.05 67.81 95.21 72.06 95.21 76.79 102.99 47.91 102.99 52.65 95.21 56.89 95.21 56.89 50.69"/><path class="cls-1" d="M188.37,64.92h2.49V77.65h6.44V80h-8.93Z"/><path class="cls-1" d="M199.5,64.92H202V80H199.5Z"/><path class="cls-1" d="M205.39,64.92h5.37a5.33,5.33,0,0,1,3.84,1.29,3.4,3.4,0,0,1,1,2.53v.06a3.57,3.57,0,0,1-2.21,3.38c1.65.55,2.86,1.58,2.86,3.58v.09c0,2.64-2.15,4.1-5.35,4.1h-5.52Zm7.75,4.23c0-1.27-.94-2-2.55-2h-2.77V71.3h2.62c1.63,0,2.7-.71,2.7-2.11Zm-2.27,4.29h-3.05v4.3H211c1.72,0,2.82-.78,2.82-2.15v0C213.79,74.24,212.78,73.44,210.87,73.44Z"/><path class="cls-1" d="M218.85,64.92h5.43a5.55,5.55,0,0,1,4,1.42,4.57,4.57,0,0,1,1.24,3.32v.07a4.4,4.4,0,0,1-3.11,4.4L230,80h-2.9l-3.18-5.31h-2.55V80h-2.49ZM224,72.41c1.94,0,3-1,3-2.62v0c0-1.7-1.1-2.6-3-2.6h-2.7v5.24Z"/><path class="cls-1" d="M237.09,64.83h2.41L245,80h-2.59l-1.25-3.55h-5.84L234.09,80h-2.52Zm3.29,9.36-2.13-6-2.15,6Z"/><path class="cls-1" d="M247.09,64.92h5.44a5.53,5.53,0,0,1,4,1.42,4.58,4.58,0,0,1,1.25,3.32v.07a4.4,4.4,0,0,1-3.12,4.4L258.21,80h-2.89l-3.18-5.31h-2.56V80h-2.49Zm5.18,7.49c1.93,0,3-1,3-2.62v0c0-1.7-1.09-2.6-3-2.6h-2.71v5.24Z"/><path class="cls-1" d="M260.62,64.92h2.52V80h-2.52Z"/><path class="cls-1" d="M266.52,64.92H276v2.25h-7v4.08h6.18v2.26H269v4.16h7.06V80h-9.55Z"/><path class="cls-1" d="M277.86,78l1.5-1.87a5.82,5.82,0,0,0,3.95,1.79c1.44,0,2.38-.82,2.38-1.91v0c0-1-.51-1.56-2.9-2.44-2.85-1.08-4.31-2.13-4.31-4.53v0c0-2.47,1.95-4.2,4.74-4.2A6.87,6.87,0,0,1,288,66.51l-1.42,1.91A5.37,5.37,0,0,0,283.16,67c-1.35,0-2.19.75-2.19,1.74v0c0,1.05.56,1.61,3.11,2.6,2.79,1.07,4.08,2.23,4.08,4.42v0c0,2.64-2.06,4.34-4.87,4.34A7.72,7.72,0,0,1,277.86,78Z"/></svg>