<svg xmlns="http://www.w3.org/2000/svg" viewBox="0 0 295.48 301.37">
    <defs>
        <style>.cls-1{fill:#fff;}.cls-2{fill:#000;}.cls-3{fill:#c41230;}</style>
    </defs>
    <g id="Vertical_Stacked" data-name="Vertical Stacked">
        <rect class="cls-1" x="111.02" y="222.78" width="73.68" height="1.13" />
        <path class="cls-1" d="M83.07,167.15c-.48,0-.48-1,0-1l3.3-.28c1.86-.14,2.75-.89,2.68-2.89l-.82-34.72H88L73.1,166.12a.86.86,0,0,1-.83.61h-1.1a1,1,0,0,1-.89-.61l-14-36.65a4.25,4.25,0,0,0-.89-1.58l-.83,34.38c-.07,2.68.69,3.3,4.82,3.64l2.27.21c.48.06.48,1,0,1H45.39c-.48,0-.48-1,0-1l2.61-.21c3-.21,4-.89,4.06-3.71l.89-33c.07-2.68-.75-3.43-3.5-3.71l-2.89-.27c-.48-.07-.48-1,0-1H59.14a.91.91,0,0,1,.83.62L73.1,159.17h.14l13.47-34.38a.87.87,0,0,1,.83-.62H100c.48,0,.48,1,0,1l-4,.2c-1.78.07-2.4.76-2.4,2.06l.75,35.62c.07,2.06.49,2.61,3.1,2.82l2.82.21c.48.06.48,1,0,1Z" />
        <path class="cls-1" d="M104.8,167.15c-.48,0-.48-1,0-1l2.82-.21c2.81-.21,3.16-1.51,3.16-3.16V128.57c0-1.65-.35-2.95-3.16-3.16l-2.82-.2c-.48-.07-.48-1,0-1h17.39c.48,0,.48,1,0,1l-2.82.2c-2.82.21-3.16,1.51-3.16,3.16v34.18c0,1.65.34,2.95,3.16,3.16l2.82.21c.48.06.48,1,0,1Z" />
        <path class="cls-1" d="M152.17,167.15c-.48,0-.48-1,0-1l3.09-.21c2.48-.14,3.1-.76,2-4l-3.92-11.62H139.18l-2.48,7.15c-2.41,7-2.34,7.91,2.68,8.46l2,.21c.48.06.48,1,0,1H125.7c-.48,0-.48-1,0-1l1.79-.28c3.23-.48,3.92-1.1,7.29-10.38l9.76-27.16-.41-1.58a.83.83,0,0,1,.27-1l3.44-2.27c.55-.41,1.31-.48,1.51.14l13,37.33c1.44,4.13,2,4.68,4.47,5l2.68.28c.48.06.48,1,0,1Zm-5.5-36.93h-.27L140.07,148h12.51Z" />
        <path class="cls-1" d="M210.55,167.15c-.49,0-.49-1,0-1l3.3-.28c1.85-.14,2.75-.89,2.68-2.89l-.83-34.72h-.2l-14.92,37.89a.87.87,0,0,1-.83.61h-1.1a1,1,0,0,1-.89-.61l-14-36.65a4.4,4.4,0,0,0-.89-1.58l-.83,34.38c-.07,2.68.69,3.3,4.81,3.64l2.27.21c.48.06.48,1,0,1H172.87c-.48,0-.48-1,0-1l2.61-.21c3-.21,4-.89,4.06-3.71l.89-33c.07-2.68-.76-3.43-3.51-3.71l-2.88-.27c-.49-.07-.49-1,0-1h12.58a.88.88,0,0,1,.82.62l13.14,34.38h.13l13.48-34.38a.87.87,0,0,1,.82-.62h12.45c.48,0,.48,1,0,1l-4,.2c-1.79.07-2.4.76-2.4,2.06l.75,35.62c.07,2.06.48,2.61,3.1,2.82l2.81.21c.49.06.49,1,0,1Z" />
        <path class="cls-1" d="M232.34,167.15c-.48,0-.48-1,0-1l2.82-.21c2.82-.21,3.16-1.51,3.16-3.16V128.57c0-1.65-.34-2.95-3.16-3.16l-2.82-.2c-.48-.07-.48-1,0-1h17.4c.48,0,.48,1,0,1l-2.82.2c-2.82.21-3.16,1.51-3.16,3.16v34.18c0,1.65.34,2.95,3.16,3.16l2.82.21c.48.06.48,1,0,1Z" />
        <path class="cls-1" d="M64.6,178.57c0-2.35-.6-2.82-2.56-3.1l-1-.15c-.32,0-.28-.53,0-.53h8.4a.27.27,0,0,1,0,.53l-1,.15c-1.49.21-2.17.71-2.17,3.17l-.07,10c0,5.48-2.74,9-8.69,9s-9-2.38-9-8.22V177.25c0-1.07-.57-1.68-1.81-1.78l-1.43-.15c-.32,0-.28-.53,0-.53h9.87c.28,0,.32.5,0,.53l-1.57.15a1.67,1.67,0,0,0-1.67,1.81v10.58c0,5,2.06,7.48,6.41,7.48,4,0,6.34-2.85,6.3-7.62Z" />
        <path class="cls-1" d="M91.81,197.26a.89.89,0,0,1-.75-.35l-14.67-18.7h-.07l.07,15.1c0,2.35.57,2.78,2.53,3.06l1,.15c.32,0,.29.53,0,.53H71.47c-.28,0-.32-.5,0-.53l1-.15c1.5-.21,2.21-.67,2.21-3.13l0-14.35a3.06,3.06,0,0,0-2.7-3.42l-.82-.15c-.32-.07-.29-.53,0-.53h6.37a.9.9,0,0,1,.75.36L91,191.46h.07L91,178.53c0-2.35-.57-2.78-2.53-3.06l-1-.15c-.32,0-.28-.53,0-.53H95.9a.27.27,0,0,1,0,.53l-1,.15c-1.5.21-2.21.67-2.21,3.13l-.07,18.17a.52.52,0,0,1-.54.49Z" />
        <path class="cls-1" d="M98.15,197.05c-.29,0-.32-.5,0-.53l1.42-.15c1.32-.14,1.71-.71,1.71-2V177.46c0-1.28-.39-1.85-1.71-2l-1.42-.15c-.32,0-.29-.53,0-.53h9.65c.28,0,.32.5,0,.53l-1.42.15c-1.32.14-1.71.71-1.71,2v16.92c0,1.28.39,1.85,1.71,2l1.42.15c.32,0,.28.53,0,.53Z" />
        <path class="cls-1" d="M120.83,197.48a.66.66,0,0,1-.6-.43l-6.7-18.23c-1-2.71-1.42-3.14-3-3.35l-1-.15c-.32,0-.28-.53,0-.53h9.73c.28,0,.32.5,0,.53l-1,.08c-1.74.1-2.1.89-1.28,3.2L122,192.88h.21l4.1-11.43c1.74-4.91,1.57-5.77-1.39-6l-.78-.08c-.32,0-.29-.53,0-.53H133c.28,0,.32.46,0,.53l-.71.15c-1.75.35-2.28.67-4.31,6.3l-5.56,15.28a.66.66,0,0,1-.6.43Z" />
        <path class="cls-1" d="M134.65,197.05c-.28,0-.35-.5,0-.53l1.24-.15c1.32-.14,1.6-.71,1.6-2V177.46c0-1.14-.14-1.89-1.74-2l-1.07-.11c-.32,0-.28-.53,0-.53h16.6a.5.5,0,0,1,.53.5l.32,6.7c0,.39-.6.35-.67,0l-.36-1.36c-.86-3.24-1.92-4.2-7.27-4.2h-3v8.51l2.31,0c3.85-.07,4.13-1,4.38-2.52l.15-.93c.07-.43.74-.39.74,0v8.33c0,.4-.67.43-.74,0l-.15-.92c-.25-1.57-.53-2.42-4.38-2.49l-2.31,0v9l3.42.15c5.3.18,6.76-1,7.9-4.45l.43-1.32c.14-.39.78-.32.71.07l-1,6.87a.5.5,0,0,1-.53.43Z" />
        <path class="cls-1" d="M171.37,197.05a1.3,1.3,0,0,1-1.25-.68l-5.66-9.19a14.35,14.35,0,0,1-3-.42v7.73c0,1.38.5,1.81,1.71,1.92l1.21.11c.32,0,.29.53,0,.53h-9.11c-.29,0-.36-.5,0-.53l1.25-.11c1.21-.11,1.6-.75,1.6-2V177.46c0-1.28-.36-1.92-1.6-2l-1.25-.11c-.32,0-.28-.53,0-.53h9c5.81,0,8.69,2.35,8.69,6.06a6.41,6.41,0,0,1-4.84,6.26l4.31,6.49c1.35,2.06,2.13,2.63,3.52,2.81l.82.11c.32,0,.29.53,0,.53Zm-9.87-20.66v8.76a12,12,0,0,0,2.82.47c3.1-.07,5.09-1.18,5.09-4.7,0-3.24-1.89-4.53-6-4.53Z" />
        <path class="cls-1" d="M178.28,190.43c0-.29.5-.36.6,0l.5,1.42a6,6,0,0,0,6.13,4.17c3,0,4.88-1.39,4.88-4.06s-2.07-3.95-5.24-5.06c-3.49-1.24-6.23-2.84-6.23-6.48,0-2.92,2.42-6.09,7.12-6.09a17.88,17.88,0,0,1,4.7.68c.57,0,1-.39,1.21-.39a.22.22,0,0,1,.25.25l.08,6c0,.28-.5.35-.65,0l-1-2.28c-.75-1.75-2.07-2.71-4.74-2.71-2.49,0-4.17,1.28-4.17,3.42,0,2.46,2.28,3.45,5.1,4.49,3.95,1.42,6.62,3.09,6.62,6.9,0,3.32-3,6.88-8,6.88a21.06,21.06,0,0,1-6.41-1,.85.85,0,0,1-.57-.75Z" />
        <path class="cls-1" d="M195.44,197.05c-.28,0-.32-.5,0-.53l1.43-.15c1.32-.14,1.71-.71,1.71-2V177.46c0-1.28-.39-1.85-1.71-2l-1.43-.15c-.32,0-.28-.53,0-.53h9.66c.28,0,.32.5,0,.53l-1.43.15c-1.32.14-1.71.71-1.71,2v16.92c0,1.28.39,1.85,1.71,2l1.43.15c.32,0,.28.53,0,.53Z" />
        <path class="cls-1" d="M212,197.05c-.29,0-.32-.5,0-.53l1.71-.15a1.66,1.66,0,0,0,1.64-1.78V176.43h-1.07c-3.63,0-5.56,1.57-6.45,4l-.53,1.46c-.14.5-.79.39-.71,0l1-6.63a.53.53,0,0,1,.53-.46h18a.52.52,0,0,1,.54.5l.64,6.59c0,.43-.54.46-.68,0l-.43-1.35c-.92-3-2.74-4.1-6.37-4.1H218.7v18.16a1.66,1.66,0,0,0,1.64,1.78l1.71.15c.32,0,.28.53,0,.53Z" />
        <path class="cls-1" d="M234.65,197.05c-.28,0-.32-.5,0-.53l1.71-.15a1.66,1.66,0,0,0,1.64-1.78v-7l-5.73-9.87c-.93-1.6-1.53-2.06-2.81-2.24l-1-.15c-.32,0-.29-.53,0-.53h9.44c.28,0,.32.5,0,.53l-.65,0c-1.85.11-2.06,1-.82,3.21l3.92,6.94h.07l3.07-5.63c1.74-3.24,1.78-4.16-.43-4.45l-.82-.11c-.32,0-.28-.53,0-.53h8.23c.28,0,.32.5,0,.53l-.82.11c-1.39.18-2.32.89-4.17,4.24l-4.09,7.41v7.51a1.65,1.65,0,0,0,1.63,1.78l1.71.15c.32,0,.29.53,0,.53Z" />
        <polygon class="cls-1" points="183.27 88.77 183.27 57.13 184.7 57.13 197.25 36.48 162.28 36.48 147.86 60.36 133.44 36.48 98.47 36.48 111.03 57.13 112.45 57.13 112.45 88.77 111.03 88.77 98.47 109.42 197.25 109.42 184.7 88.77 183.27 88.77" />
        <polygon class="cls-2" points="149.31 107.28 159.26 90.92 161.62 90.92 161.62 79.46 147.86 102.25 134.1 79.46 134.1 90.92 136.47 90.92 146.41 107.28 102.29 107.28 112.23 90.92 114.6 90.92 114.6 54.98 112.23 54.98 102.29 38.62 132.24 38.62 147.86 64.51 163.49 38.62 193.44 38.62 183.49 54.98 181.13 54.98 181.13 90.92 183.49 90.92 193.44 107.28 149.31 107.28" />
        <polygon class="cls-3" points="118.89 50.69 114.65 50.69 109.91 42.91 129.81 42.91 129.81 42.91 147.86 72.81 165.91 42.91 185.81 42.91 181.08 50.69 176.84 50.69 176.84 95.21 181.08 95.21 185.81 102.99 156.94 102.99 161.67 95.21 165.91 95.21 165.91 64.05 154.24 83.38 147.86 93.95 147.86 93.95 147.86 93.95 141.48 83.38 129.81 64.05 129.81 95.21 134.06 95.21 138.79 102.99 109.91 102.99 114.65 95.21 118.89 95.21 118.89 50.69" />
        <path class="cls-1" d="M98.32,249.63h2.49v12.73h6.44v2.29H98.32Z" />
        <path class="cls-1" d="M109.45,249.63H112v15h-2.51Z" />
        <path class="cls-1" d="M115.34,249.63h5.37a5.37,5.37,0,0,1,3.84,1.28,3.44,3.44,0,0,1,1,2.54v.06a3.55,3.55,0,0,1-2.21,3.37c1.65.56,2.86,1.59,2.86,3.59v.08c0,2.64-2.15,4.1-5.35,4.1h-5.52Zm7.75,4.22c0-1.26-.94-2-2.55-2h-2.77V256h2.62c1.63,0,2.7-.71,2.7-2.1Zm-2.27,4.3h-3v4.29h3.15c1.72,0,2.82-.77,2.82-2.14v-.05C123.74,258.94,122.73,258.15,120.82,258.15Z" />
        <path class="cls-1" d="M128.8,249.63h5.43a5.59,5.59,0,0,1,4,1.41,4.59,4.59,0,0,1,1.24,3.33v.06a4.42,4.42,0,0,1-3.11,4.41l3.54,5.81H137l-3.18-5.3h-2.55v5.3H128.8Zm5.17,7.49c1.93,0,3-1,3-2.62v0c0-1.7-1.1-2.6-3-2.6h-2.7v5.24Z" />
        <path class="cls-1" d="M147,249.54h2.41L155,264.65h-2.59l-1.25-3.54h-5.84L144,264.65h-2.52Zm3.29,9.36-2.13-6-2.15,6Z" />
        <path class="cls-1" d="M157,249.63h5.44a5.56,5.56,0,0,1,4,1.41,4.59,4.59,0,0,1,1.24,3.33v.06a4.4,4.4,0,0,1-3.11,4.41l3.54,5.81h-2.89l-3.18-5.3h-2.56v5.3H157Zm5.18,7.49c1.93,0,3-1,3-2.62v0c0-1.7-1.09-2.6-3-2.6h-2.71v5.24Z" />
        <path class="cls-1" d="M170.57,249.63h2.52v15h-2.52Z" />
        <path class="cls-1" d="M176.47,249.63h9.47v2.25h-7V256h6.18v2.25H179v4.17H186v2.27h-9.55Z" />
        <path class="cls-1" d="M187.81,262.68l1.5-1.87a5.83,5.83,0,0,0,3.95,1.78c1.44,0,2.38-.81,2.38-1.91v0c0-1-.51-1.57-2.9-2.45-2.85-1.07-4.31-2.12-4.31-4.53v0c0-2.47,1.95-4.21,4.74-4.21a6.91,6.91,0,0,1,4.73,1.78l-1.42,1.91a5.42,5.42,0,0,0-3.37-1.43c-1.35,0-2.19.75-2.19,1.74v0c0,1.05.56,1.61,3.11,2.59,2.79,1.08,4.08,2.24,4.08,4.43v0c0,2.64-2.06,4.34-4.87,4.34A7.76,7.76,0,0,1,187.81,262.68Z" />
    </g>
</svg>