<svg id="Horizontal_Stacked" data-name="Horizontal Stacked" xmlns="http://www.w3.org/2000/svg" viewBox="0 0 544.09 146.4">
    <defs>
        <style>.cls-1{fill:#fff;}.cls-2{fill:#000;}.cls-3{fill:#c41230;}</style>
    </defs>
    <rect class="cls-1" x="376.91" y="36.17" width="1.13" height="73.03" />
    <path class="cls-1" d="M184.09,79.49c-.49,0-.49-1,0-1l3.3-.28c1.85-.14,2.75-.89,2.68-2.89l-.83-34.72H189L174.12,78.46a.87.87,0,0,1-.83.61h-1.1a1,1,0,0,1-.89-.61l-14-36.65a4.4,4.4,0,0,0-.89-1.58l-.83,34.38c-.07,2.68.69,3.3,4.81,3.64l2.27.21c.48.06.48,1,0,1H146.41c-.48,0-.48-1,0-1l2.61-.21c3-.21,4-.89,4.06-3.71l.89-33c.07-2.68-.76-3.43-3.51-3.71l-2.88-.27c-.49-.07-.49-1,0-1h12.58a.88.88,0,0,1,.82.62l13.14,34.38h.13l13.48-34.38a.87.87,0,0,1,.82-.62H201c.48,0,.48,1,0,1l-4,.2c-1.79.07-2.4.76-2.4,2.06l.75,35.62c.07,2.06.48,2.61,3.1,2.82l2.81.21c.49.06.49,1,0,1Z" />
    <path class="cls-1" d="M205.81,79.49c-.48,0-.48-1,0-1l2.82-.21c2.82-.21,3.17-1.51,3.17-3.16V40.91c0-1.65-.35-2.95-3.17-3.16l-2.82-.2c-.48-.07-.48-1,0-1h17.4c.48,0,.48,1,0,1l-2.82.2c-2.82.21-3.16,1.51-3.16,3.16V75.09c0,1.65.34,3,3.16,3.16l2.82.21c.48.06.48,1,0,1Z" />
    <path class="cls-1" d="M253.19,79.49c-.48,0-.48-1,0-1l3.09-.21c2.48-.14,3.1-.76,2-4l-3.92-11.62H240.19l-2.47,7.15c-2.41,6.95-2.34,7.91,2.68,8.46l2,.21c.48.06.48,1,0,1H226.72c-.48,0-.48-1,0-1l1.78-.28c3.24-.48,3.92-1.1,7.29-10.38l9.77-27.16-.42-1.58a.83.83,0,0,1,.28-1l3.44-2.27c.55-.41,1.3-.48,1.51.14l13,37.33c1.45,4.13,2,4.68,4.47,5l2.68.28c.49.06.49,1,0,1Zm-5.5-36.92h-.28L241.09,60.3H253.6Z" />
    <path class="cls-1" d="M311.56,79.49c-.48,0-.48-1,0-1l3.3-.28c1.86-.14,2.75-.89,2.68-2.89l-.82-34.72h-.21L301.59,78.46a.85.85,0,0,1-.82.61h-1.1a1,1,0,0,1-.9-.61L284.82,41.81a4.26,4.26,0,0,0-.9-1.58l-.82,34.38c-.07,2.68.68,3.3,4.81,3.64l2.27.21c.48.06.48,1,0,1h-16.3c-.48,0-.48-1,0-1l2.62-.21c2.95-.21,4-.89,4.05-3.71l.9-33c.07-2.68-.76-3.43-3.51-3.71l-2.89-.27c-.48-.07-.48-1,0-1h12.59a.89.89,0,0,1,.82.62l13.13,34.38h.14l13.48-34.38a.86.86,0,0,1,.82-.62h12.45c.48,0,.48,1,0,1l-4,.2c-1.79.07-2.41.76-2.41,2.06l.76,35.62c.07,2.06.48,2.61,3.09,2.82l2.82.21c.48.06.48,1,0,1Z" />
    <path class="cls-1" d="M333.36,79.49c-.48,0-.48-1,0-1l2.82-.21c2.82-.21,3.16-1.51,3.16-3.16V40.91c0-1.65-.34-2.95-3.16-3.16l-2.82-.2c-.48-.07-.48-1,0-1h17.4c.48,0,.48,1,0,1l-2.82.2c-2.82.21-3.17,1.51-3.17,3.16V75.09c0,1.65.35,3,3.17,3.16l2.82.21c.48.06.48,1,0,1Z" />
    <path class="cls-1" d="M165.62,90.91c0-2.35-.61-2.82-2.57-3.1l-1-.14c-.32,0-.29-.54,0-.54h8.4c.29,0,.32.5,0,.54l-1,.14c-1.5.21-2.17.71-2.17,3.17l-.07,10c0,5.48-2.75,9-8.69,9-6.09,0-9-2.38-9-8.22V89.59c0-1.07-.57-1.68-1.82-1.78l-1.42-.14c-.32,0-.29-.54,0-.54h9.86c.29,0,.33.5,0,.54l-1.56.14a1.67,1.67,0,0,0-1.68,1.81V100.2c0,5,2.07,7.48,6.41,7.48,4,0,6.34-2.85,6.31-7.62Z" />
    <path class="cls-1" d="M192.83,109.6a.89.89,0,0,1-.75-.35l-14.67-18.7h-.08l.08,15.1c0,2.35.57,2.78,2.52,3.06l1,.15c.32,0,.29.53,0,.53h-8.44c-.28,0-.32-.5,0-.53l1-.15c1.49-.21,2.21-.67,2.21-3.13l0-14.35A3.06,3.06,0,0,0,173,87.81l-.81-.14c-.32-.08-.29-.54,0-.54h6.37a.9.9,0,0,1,.75.36L192,103.8h.07L192,90.87c0-2.35-.57-2.78-2.53-3.06l-1-.14c-.32,0-.28-.54,0-.54h8.44c.29,0,.32.5,0,.54l-1,.14c-1.49.21-2.2.67-2.2,3.13l-.07,18.17a.52.52,0,0,1-.54.49Z" />
    <path class="cls-1" d="M199.17,109.39a.27.27,0,0,1,0-.53l1.42-.15c1.32-.14,1.71-.71,1.71-2V89.8c0-1.28-.39-1.85-1.71-2l-1.42-.14c-.33,0-.29-.54,0-.54h9.65c.28,0,.32.5,0,.54l-1.43.14c-1.32.14-1.71.71-1.71,2v16.92c0,1.28.39,1.85,1.71,2l1.43.15c.32,0,.28.53,0,.53Z" />
    <path class="cls-1" d="M221.85,109.82a.65.65,0,0,1-.6-.43l-6.7-18.23c-1-2.71-1.42-3.14-3-3.35l-1-.14c-.32,0-.28-.54,0-.54h9.72c.29,0,.32.5,0,.54l-1,.07c-1.74.1-2.1.89-1.28,3.2L223,105.22h.21l4.1-11.43c1.74-4.91,1.56-5.77-1.39-6.05l-.79-.07c-.32,0-.28-.54,0-.54H234c.28,0,.32.46,0,.54l-.72.14c-1.74.35-2.28.67-4.31,6.3l-5.55,15.28a.66.66,0,0,1-.61.43Z" />
    <path class="cls-1" d="M235.67,109.39c-.29,0-.36-.5,0-.53l1.25-.15c1.32-.14,1.6-.71,1.6-2V89.8c0-1.14-.14-1.89-1.74-2l-1.07-.1c-.32,0-.29-.54,0-.54h16.59a.5.5,0,0,1,.54.5l.32,6.69c0,.4-.61.36-.68,0L252.09,93c-.86-3.24-1.93-4.2-7.27-4.2h-2.95v8.51l2.31,0c3.85-.08,4.13-1,4.38-2.53l.14-.93c.07-.43.75-.39.75,0v8.33c0,.4-.68.43-.75,0l-.14-.92c-.25-1.57-.53-2.42-4.38-2.49l-2.31,0v9l3.41.15c5.31.18,6.77-1,7.91-4.45l.43-1.32c.14-.39.78-.32.71.07l-1,6.87a.51.51,0,0,1-.54.43Z" />
    <path class="cls-1" d="M272.39,109.39a1.29,1.29,0,0,1-1.25-.68l-5.66-9.19a14.25,14.25,0,0,1-3-.42v7.73c0,1.38.5,1.81,1.71,1.92l1.21.11c.32,0,.29.53,0,.53h-9.12c-.28,0-.35-.5,0-.53l1.25-.11c1.21-.11,1.6-.75,1.6-2V89.8c0-1.28-.36-1.92-1.6-2l-1.25-.1c-.32,0-.29-.54,0-.54h9c5.8,0,8.69,2.35,8.69,6.06a6.41,6.41,0,0,1-4.84,6.26l4.3,6.49c1.36,2.06,2.14,2.63,3.53,2.81l.82.11c.32,0,.28.53,0,.53Zm-9.87-20.66v8.76a11.87,11.87,0,0,0,2.81.47c3.1-.07,5.1-1.18,5.1-4.7,0-3.24-1.89-4.53-6-4.53Z" />
    <path class="cls-1" d="M279.3,102.77c0-.29.49-.36.6,0l.5,1.42a6,6,0,0,0,6.13,4.17c3,0,4.87-1.39,4.87-4.06s-2.06-4-5.23-5.06c-3.49-1.24-6.23-2.84-6.23-6.48,0-2.92,2.42-6.09,7.12-6.09a18,18,0,0,1,4.7.68c.57,0,1-.39,1.21-.39a.22.22,0,0,1,.25.25l.07,6c0,.28-.5.35-.64,0l-1-2.28c-.74-1.75-2.06-2.71-4.73-2.71-2.5,0-4.17,1.28-4.17,3.42,0,2.46,2.28,3.45,5.09,4.49,4,1.42,6.63,3.09,6.63,6.9,0,3.32-3,6.88-8,6.88a21,21,0,0,1-6.41-1,.85.85,0,0,1-.57-.75Z" />
    <path class="cls-1" d="M296.46,109.39c-.28,0-.32-.5,0-.53l1.43-.15c1.31-.14,1.71-.71,1.71-2V89.8c0-1.28-.4-1.85-1.71-2l-1.43-.14c-.32,0-.28-.54,0-.54h9.65c.29,0,.32.5,0,.54l-1.42.14c-1.32.14-1.71.71-1.71,2v16.92c0,1.28.39,1.85,1.71,2l1.42.15c.32,0,.29.53,0,.53Z" />
    <path class="cls-1" d="M313,109.39c-.29,0-.32-.5,0-.53l1.71-.15a1.65,1.65,0,0,0,1.63-1.78V88.77h-1.06c-3.64,0-5.56,1.57-6.45,4l-.54,1.46c-.14.5-.78.39-.71,0l1-6.63a.52.52,0,0,1,.53-.46h18a.51.51,0,0,1,.53.5l.65,6.59c0,.43-.54.46-.68,0l-.43-1.36c-.92-3-2.74-4.09-6.37-4.09h-1.14v18.16a1.66,1.66,0,0,0,1.64,1.78l1.7.15a.27.27,0,0,1,0,.53Z" />
    <path class="cls-1" d="M335.67,109.39c-.28,0-.32-.5,0-.53l1.71-.15a1.66,1.66,0,0,0,1.64-1.78v-7l-5.73-9.87c-.93-1.6-1.54-2.06-2.82-2.24l-1-.14c-.32,0-.28-.54,0-.54h9.44c.29,0,.32.5,0,.54l-.64,0c-1.85.11-2.06,1-.82,3.21l3.92,6.94h.07l3.06-5.63c1.75-3.24,1.78-4.16-.42-4.45l-.82-.1c-.32,0-.29-.54,0-.54h8.22c.29,0,.32.5,0,.54l-.82.1c-1.38.18-2.31.89-4.16,4.24l-4.1,7.41v7.51a1.66,1.66,0,0,0,1.64,1.78l1.71.15c.32,0,.28.53,0,.53Z" />
    <polygon class="cls-1" points="121.27 88.77 121.27 57.13 122.7 57.13 135.25 36.48 100.28 36.48 85.86 60.36 71.45 36.48 36.48 36.48 49.03 57.13 50.45 57.13 50.45 88.77 49.03 88.77 36.48 109.43 135.25 109.43 122.7 88.77 121.27 88.77" />
    <polygon class="cls-2" points="87.31 107.28 97.26 90.92 99.62 90.92 99.62 79.46 85.86 102.25 72.1 79.46 72.1 90.92 74.47 90.92 84.42 107.28 40.29 107.28 50.23 90.92 52.6 90.92 52.6 54.98 50.23 54.98 40.29 38.62 70.24 38.62 85.86 64.51 101.49 38.62 131.44 38.62 121.49 54.98 119.13 54.98 119.13 90.92 121.49 90.92 131.44 107.28 87.31 107.28" />
    <polygon class="cls-3" points="56.89 50.69 52.65 50.69 47.91 42.91 67.81 42.91 67.81 42.91 85.86 72.81 103.91 42.91 123.81 42.91 119.08 50.69 114.84 50.69 114.84 95.21 119.08 95.21 123.81 102.99 94.94 102.99 99.67 95.21 103.91 95.21 103.91 64.05 92.25 83.38 85.86 93.95 85.86 93.95 85.86 93.95 79.48 83.38 67.81 64.05 67.81 95.21 72.06 95.21 76.79 102.99 47.91 102.99 52.65 95.21 56.89 95.21 56.89 50.69" />
    <path class="cls-1" d="M404.83,64.92h2.49V77.65h6.44V80h-8.93Z" />
    <path class="cls-1" d="M416,64.92h2.51V80H416Z" />
    <path class="cls-1" d="M421.85,64.92h5.37a5.33,5.33,0,0,1,3.84,1.29,3.4,3.4,0,0,1,1,2.53v.06a3.57,3.57,0,0,1-2.21,3.38c1.66.55,2.86,1.58,2.86,3.58v.09c0,2.64-2.15,4.1-5.35,4.1h-5.52Zm7.75,4.23c0-1.27-.94-2-2.55-2h-2.77V71.3h2.62c1.63,0,2.7-.71,2.7-2.11Zm-2.27,4.29h-3.05v4.3h3.16c1.71,0,2.81-.78,2.81-2.15v0C430.25,74.24,429.24,73.44,427.33,73.44Z" />
    <path class="cls-1" d="M435.31,64.92h5.43a5.55,5.55,0,0,1,4,1.42A4.57,4.57,0,0,1,446,69.66v.07a4.4,4.4,0,0,1-3.11,4.4L446.43,80h-2.9l-3.17-5.31H437.8V80h-2.49Zm5.17,7.49c1.94,0,3-1,3-2.62v0c0-1.7-1.1-2.6-3-2.6H437.8v5.24Z" />
    <path class="cls-1" d="M453.55,64.83H456L461.48,80h-2.6l-1.25-3.55h-5.84L450.55,80H448Zm3.29,9.36-2.13-6-2.14,6Z" />
    <path class="cls-1" d="M463.56,64.92H469a5.53,5.53,0,0,1,4,1.42,4.54,4.54,0,0,1,1.25,3.32v.07a4.4,4.4,0,0,1-3.12,4.4L474.68,80h-2.9l-3.18-5.31h-2.55V80h-2.49Zm5.17,7.49c1.93,0,3-1,3-2.62v0c0-1.7-1.09-2.6-3-2.6h-2.7v5.24Z" />
    <path class="cls-1" d="M477.08,64.92h2.52V80h-2.52Z" />
    <path class="cls-1" d="M483,64.92h9.47v2.25h-7v4.08h6.18v2.26h-6.18v4.16h7.06V80H483Z" />
    <path class="cls-1" d="M494.32,78l1.5-1.87a5.84,5.84,0,0,0,3.95,1.79c1.44,0,2.38-.82,2.38-1.91v0c0-1-.51-1.56-2.89-2.44-2.86-1.08-4.32-2.13-4.32-4.53v0c0-2.47,1.95-4.2,4.75-4.2a6.84,6.84,0,0,1,4.72,1.78L503,68.42A5.37,5.37,0,0,0,499.62,67c-1.35,0-2.19.75-2.19,1.74v0c0,1.05.56,1.61,3.11,2.6,2.79,1.07,4.08,2.23,4.08,4.42v0c0,2.64-2.06,4.34-4.87,4.34A7.72,7.72,0,0,1,494.32,78Z" />
</svg>